<?xml version="1.0" encoding="utf-8"?>
<!-- Generator: Adobe Illustrator 19.2.1, SVG Export Plug-In . SVG Version: 6.00 Build 0)  -->
<!DOCTYPE svg PUBLIC "-//W3C//DTD SVG 1.1//EN" "http://www.w3.org/Graphics/SVG/1.1/DTD/svg11.dtd">
<svg version="1.1"
	 id="svg2" xmlns:cc="http://creativecommons.org/ns#" xmlns:dc="http://purl.org/dc/elements/1.1/" xmlns:inkscape="http://www.inkscape.org/namespaces/inkscape" xmlns:rdf="http://www.w3.org/1999/02/22-rdf-syntax-ns#" xmlns:sodipodi="http://sodipodi.sourceforge.net/DTD/sodipodi-0.dtd" xmlns:svg="http://www.w3.org/2000/svg"
	 xmlns="http://www.w3.org/2000/svg" xmlns:xlink="http://www.w3.org/1999/xlink" x="0px" y="0px" width="500px" height="500px"
	 viewBox="0 0 500 500" style="enable-background:new 0 0 500 500;" xml:space="preserve">
<style type="text/css">
	.st0{fill:#878787;}
	.st1{fill:#FFFFFF;}
</style>
<g id="layer1" transform="translate(0,-552.36218)">
	<path id="rect3758-1" class="st0" d="M250,552.4L250,552.4c138.1,0,250,111.9,250,250l0,0c0,138.1-111.9,250-250,250l0,0
		c-138.1,0-250-111.9-250-250l0,0C0,664.3,111.9,552.4,250,552.4z"/>
	<path id="rect2989-1" class="st1" d="M289.7,612.4c-67.8,0-90.2,31.1-90.2,84.4V739H155v63.4h44.5v190h82.1v-190h55.8L345,739
		h-63.3v-37.7c0-17,3.7-25.7,30.2-25.7H345v-63.3H289.7z"/>
</g>
</svg>
