<?xml version="1.0" encoding="utf-8"?>
<!-- Generator: Adobe Illustrator 18.1.1, SVG Export Plug-In . SVG Version: 6.00 Build 0)  -->
<!DOCTYPE svg PUBLIC "-//W3C//DTD SVG 1.1//EN" "http://www.w3.org/Graphics/SVG/1.1/DTD/svg11.dtd">
<svg version="1.1" id="Ebene_1" xmlns="http://www.w3.org/2000/svg" xmlns:xlink="http://www.w3.org/1999/xlink" x="0px" y="0px"
	 width="595.3px" height="595.3px" viewBox="123.3 0 595.3 595.3" enable-background="new 123.3 0 595.3 595.3"
	 xml:space="preserve">
<path fill="#5C5C5C" d="M437.5,479.5c0-6.6,0-9.9-3.3-13.2c0-3.3-3.3-9.9-3.3-13.2c0-3.3-3.3-6.6-6.6-13.2
	c-3.3-6.6-3.3-9.9-6.6-13.2c-3.3-3.3-6.6-6.6-9.9-9.9s-6.6-6.6-9.9-9.9c-3.3-3.3-6.6-6.6-9.9-9.9c-6.6-3.3-9.9-6.6-9.9-6.6
	c-3.3,0-6.6-3.3-13.2-9.9c-6.6-3.3-9.9-3.3-9.9-6.6c-3.3,0-9.9,0-16.5,0c-13.2,0-26.5,0-36.4,3.3c-13.2,3.3-26.5,3.3-39.7,9.9
	c-16.5,3.3-29.8,9.9-39.7,16.5c-9.9,6.6-16.5,16.5-23.1,26.5c-6.6,9.9-9.9,23.1-9.9,36.4c0,16.5,3.3,29.8,13.2,43
	c9.9,13.2,19.8,23.1,33.1,29.8c13.2,6.6,26.5,13.2,43,16.5c13.2,3.3,29.8,6.6,46.3,6.6c13.2,0,26.5,0,39.7-3.3s26.5-6.6,36.4-13.2
	c9.9-6.6,19.8-16.5,26.5-29.8C434.2,506,437.5,492.8,437.5,479.5z M394.5,168.7c0-13.2-3.3-29.8-6.6-46.3s-9.9-33.1-16.5-46.3
	s-16.5-26.5-29.8-36.4s-26.5-13.2-43-13.2c-23.1,0-39.7,6.6-52.9,23.1c-9.9,16.5-16.5,36.4-16.5,59.5c0,9.9,0,23.1,3.3,36.4
	c3.3,13.2,6.6,26.5,13.2,36.4c6.6,13.2,13.2,23.1,19.8,33.1s16.5,16.5,26.5,23.1c9.9,6.6,23.1,9.9,36.4,9.9
	c23.1,0,39.7-6.6,49.6-23.1C387.9,211.7,394.5,195.1,394.5,168.7z M348.2,0h155.4L454,29.8h-46.3c16.5,9.9,29.8,26.5,39.7,46.3
	c6.6,16.5,13.2,36.4,13.2,56.2c0,16.5-3.3,33.1-6.6,46.3c-6.6,13.2-13.2,26.5-19.8,33.1c-9.9,9.9-19.8,16.5-26.5,26.5
	c-6.6,6.6-13.2,13.2-19.8,19.8c-6.6,9.9-6.6,16.5-6.6,26.5c0,6.6,3.3,13.2,6.6,16.5c3.3,6.6,9.9,13.2,16.5,16.5
	c3.3,6.6,9.9,13.2,16.5,16.5c6.6,6.6,16.5,13.2,23.1,19.8s13.2,16.5,19.8,23.1c6.6,9.9,13.2,19.8,16.5,29.8
	c3.3,13.2,6.6,23.1,6.6,39.7c0,36.4-16.5,72.8-49.6,99.2c-36.4,33.1-86,49.6-152.1,49.6c-13.2,0-29.8,0-43-3.3
	c-13.2-3.3-29.8-6.6-43-13.2c-13.2-6.6-26.5-13.2-39.7-19.8c-9.9-6.6-19.8-19.8-26.5-33.1c-6.6-13.2-9.9-26.5-9.9-43
	c0-13.2,3.3-29.8,13.2-49.6c6.6-16.5,19.8-29.8,33.1-39.7c16.5-9.9,33.1-19.8,52.9-26.5c19.8-6.6,36.4-9.9,56.2-13.2
	c16.5-3.3,36.4-3.3,52.9-3.3c-16.5-19.8-23.1-36.4-23.1-52.9c0-3.3,0-6.6,0-9.9s0-6.6,3.3-6.6c0-3.3,0-3.3,3.3-6.6
	c0-3.3,3.3-6.6,3.3-6.6c-9.9,0-16.5,3.3-26.5,3.3c-36.4,0-66.1-13.2-92.6-36.4c-23.1-23.1-36.4-52.9-36.4-86s9.9-62.8,33.1-89.3
	s49.6-43,82.7-49.6C301.9,3.3,325,0,348.2,0z M718.6,92.6v46.3H626v92.6h-46.3v-95.9h-92.6v-43h92.6V0H626v92.6H718.6z"/>
</svg>
