<?xml version="1.0" encoding="utf-8"?>
<!-- Generator: Adobe Illustrator 16.0.0, SVG Export Plug-In . SVG Version: 6.00 Build 0)  -->
<!DOCTYPE svg PUBLIC "-//W3C//DTD SVG 1.1//EN" "http://www.w3.org/Graphics/SVG/1.1/DTD/svg11.dtd">
<svg version="1.1" id="Layer_1" xmlns="http://www.w3.org/2000/svg" xmlns:xlink="http://www.w3.org/1999/xlink" x="0px" y="0px"
	 width="512px" height="512px" viewBox="0 0 512 512" enable-background="new 0 0 512 512" xml:space="preserve">
<path fill="#7F7F7F" d="M256.23,0C115.184,0,0,115.184,0,256.23C0,396.81,115.184,512,256.23,512C396.81,512,512,396.81,512,256.23
	C512,115.184,396.81,0,256.23,0z M175.958,399.98h-48.073V175.958h48.073V399.98z M151.922,143.759
	c-17.686,0-32.2-14.061-32.2-31.747c0-17.686,14.514-32.2,32.2-32.2s32.199,14.514,32.199,32.2S169.607,143.759,151.922,143.759z
	 M399.98,399.98h-48.072V272.088c0-30.832-11.327-48.064-37.637-48.064c-26.311,0-58.042,22.224-58.042,48.064V399.98h-48.08
	V175.958h48.081v32.192c15.857-16.327,39.449-32.192,73.007-32.192c42.621,0,70.742,24.935,70.742,80.272V399.98z"/>
</svg>
